<svg data-v-423bf9ae="" xmlns="http://www.w3.org/2000/svg" viewBox="0 0 493 112" class="iconLeftSlogan"><!----><!----><!----><g data-v-423bf9ae="" id="bbd5d941-c7d8-4454-82d9-f523d43579e4" fill="#250A05" transform="matrix(5.347593910151634,0,0,5.347593910151634,86.74984703792089,-13.689840580833561)"><path d="M7.38 13.64L6.62 11.19L2.92 11.19L2.17 13.64L0.40 13.64L3.77 3.63L6.19 3.63L9.55 13.64L7.38 13.64ZM3.29 9.92L6.25 9.92L5.20 6.42L4.84 4.95L4.70 4.95L4.35 6.42L3.29 9.92ZM11.63 13.64L11.63 7.72L10.18 7.72L10.32 6.79L11.64 6.40L11.64 6.13L11.64 6.13Q11.64 5.39 11.86 4.74L11.86 4.74L11.86 4.74Q12.09 4.09 12.51 3.60L12.51 3.60L12.51 3.60Q12.94 3.12 13.57 2.84L13.57 2.84L13.57 2.84Q14.20 2.56 15.01 2.56L15.01 2.56L15.01 2.56Q15.33 2.56 15.69 2.60L15.69 2.60L15.69 2.60Q16.04 2.65 16.37 2.75L16.37 2.75L16.06 4.05L15.93 4.12L15.93 4.12Q15.73 4.01 15.49 3.95L15.49 3.95L15.49 3.95Q15.26 3.88 15.00 3.88L15.00 3.88L15.00 3.88Q14.64 3.88 14.39 4.03L14.39 4.03L14.39 4.03Q14.13 4.18 13.97 4.44L13.97 4.44L13.97 4.44Q13.80 4.71 13.73 5.08L13.73 5.08L13.73 5.08Q13.65 5.45 13.65 5.89L13.65 5.89L13.65 6.40L15.99 6.40L15.67 7.72L13.65 7.72L13.65 13.64L11.63 13.64ZM17.32 13.64L17.32 6.40L18.99 6.40L19.25 8.54L19.25 8.54Q19.35 8.35 19.46 8.15L19.46 8.15L19.46 8.15Q19.56 7.96 19.66 7.78L19.66 7.78L19.66 7.78Q19.76 7.61 19.84 7.47L19.84 7.47L19.84 7.47Q19.93 7.33 19.98 7.26L19.98 7.26L19.98 7.26Q20.13 7.05 20.29 6.86L20.29 6.86L20.29 6.86Q20.46 6.68 20.67 6.55L20.67 6.55L20.67 6.55Q20.87 6.41 21.12 6.34L21.12 6.34L21.12 6.34Q21.36 6.26 21.66 6.26L21.66 6.26L21.66 6.26Q21.85 6.26 22.07 6.31L22.07 6.31L22.07 6.31Q22.29 6.36 22.46 6.47L22.46 6.47L22.24 8.30L22.24 8.30Q22.11 8.26 21.91 8.25L21.91 8.25L21.91 8.25Q21.70 8.24 21.56 8.24L21.56 8.24L21.56 8.24Q21.17 8.24 20.84 8.34L20.84 8.34L20.84 8.34Q20.51 8.44 20.24 8.62L20.24 8.62L20.24 8.62Q19.97 8.79 19.74 9.03L19.74 9.03L19.74 9.03Q19.52 9.27 19.33 9.54L19.33 9.54L19.33 13.64L17.32 13.64ZM26.85 13.78L26.85 13.78L26.85 13.78Q25.96 13.78 25.28 13.49L25.28 13.49L25.28 13.49Q24.61 13.21 24.15 12.72L24.15 12.72L24.15 12.72Q23.70 12.23 23.47 11.58L23.47 11.58L23.47 11.58Q23.24 10.94 23.24 10.22L23.24 10.22L23.24 10.22Q23.24 9.39 23.54 8.67L23.54 8.67L23.54 8.67Q23.84 7.95 24.38 7.41L24.38 7.41L24.38 7.41Q24.92 6.88 25.67 6.57L25.67 6.57L25.67 6.57Q26.43 6.26 27.34 6.26L27.34 6.26L27.34 6.26Q28.23 6.26 28.91 6.55L28.91 6.55L28.91 6.55Q29.59 6.84 30.04 7.32L30.04 7.32L30.04 7.32Q30.50 7.81 30.73 8.46L30.73 8.46L30.73 8.46Q30.97 9.11 30.97 9.84L30.97 9.84L30.97 9.84Q30.97 10.68 30.66 11.40L30.66 11.40L30.66 11.40Q30.36 12.12 29.81 12.65L29.81 12.65L29.81 12.65Q29.27 13.18 28.52 13.48L28.52 13.48L28.52 13.48Q27.76 13.78 26.85 13.78ZM27.15 12.46L27.15 12.46L27.15 12.46Q27.52 12.46 27.84 12.30L27.84 12.30L27.84 12.30Q28.16 12.14 28.39 11.84L28.39 11.84L28.39 11.84Q28.62 11.54 28.75 11.11L28.75 11.11L28.75 11.11Q28.88 10.68 28.88 10.13L28.88 10.13L28.88 10.13Q28.88 9.61 28.75 9.15L28.75 9.15L28.75 9.15Q28.63 8.68 28.40 8.34L28.40 8.34L28.40 8.34Q28.16 7.99 27.83 7.79L27.83 7.79L27.83 7.79Q27.49 7.59 27.06 7.59L27.06 7.59L27.06 7.59Q26.67 7.59 26.35 7.75L26.35 7.75L26.35 7.75Q26.03 7.92 25.81 8.22L25.81 8.22L25.81 8.22Q25.58 8.53 25.45 8.97L25.45 8.97L25.45 8.97Q25.33 9.40 25.33 9.93L25.33 9.93L25.33 9.93Q25.33 10.47 25.45 10.93L25.45 10.93L25.45 10.93Q25.58 11.40 25.82 11.73L25.82 11.73L25.82 11.73Q26.05 12.07 26.39 12.26L26.39 12.26L26.39 12.26Q26.72 12.46 27.15 12.46ZM32.70 13.33L32.70 2.69L34.71 2.69L34.71 7.46L34.71 7.46Q35 7.22 35.30 7L35.30 7L35.30 7Q35.59 6.78 35.91 6.62L35.91 6.62L35.91 6.62Q36.22 6.45 36.56 6.36L36.56 6.36L36.56 6.36Q36.90 6.26 37.27 6.26L37.27 6.26L37.27 6.26Q37.91 6.26 38.43 6.55L38.43 6.55L38.43 6.55Q38.94 6.84 39.30 7.32L39.30 7.32L39.30 7.32Q39.66 7.81 39.85 8.44L39.85 8.44L39.85 8.44Q40.04 9.06 40.04 9.74L40.04 9.74L40.04 9.74Q40.04 10.58 39.75 11.32L39.75 11.32L39.75 11.32Q39.45 12.05 38.88 12.60L38.88 12.60L38.88 12.60Q38.30 13.15 37.46 13.47L37.46 13.47L37.46 13.47Q36.61 13.78 35.53 13.78L35.53 13.78L35.53 13.78Q35.25 13.78 34.92 13.76L34.92 13.76L34.92 13.76Q34.58 13.73 34.22 13.68L34.22 13.68L34.22 13.68Q33.85 13.63 33.47 13.54L33.47 13.54L33.47 13.54Q33.08 13.45 32.70 13.33L32.70 13.33ZM34.71 8.37L34.71 12.18L34.71 12.18Q35.04 12.33 35.35 12.39L35.35 12.39L35.35 12.39Q35.66 12.46 35.92 12.46L35.92 12.46L35.92 12.46Q36.44 12.46 36.81 12.25L36.81 12.25L36.81 12.25Q37.19 12.04 37.45 11.70L37.45 11.70L37.45 11.70Q37.71 11.35 37.83 10.91L37.83 10.91L37.83 10.91Q37.96 10.47 37.96 9.99L37.96 9.99L37.96 9.99Q37.96 9.53 37.84 9.11L37.84 9.11L37.84 9.11Q37.73 8.70 37.51 8.38L37.51 8.38L37.51 8.38Q37.28 8.07 36.96 7.88L36.96 7.88L36.96 7.88Q36.63 7.69 36.21 7.69L36.21 7.69L36.21 7.69Q35.90 7.69 35.53 7.83L35.53 7.83L35.53 7.83Q35.15 7.98 34.71 8.37L34.71 8.37ZM41.77 13.64L41.77 2.69L43.79 2.69L43.79 13.64L41.77 13.64ZM49.13 13.78L49.13 13.78L49.13 13.78Q48.23 13.78 47.56 13.49L47.56 13.49L47.56 13.49Q46.89 13.21 46.43 12.72L46.43 12.72L46.43 12.72Q45.98 12.23 45.75 11.58L45.75 11.58L45.75 11.58Q45.52 10.94 45.52 10.22L45.52 10.22L45.52 10.22Q45.52 9.39 45.82 8.67L45.82 8.67L45.82 8.67Q46.12 7.95 46.66 7.41L46.66 7.41L46.66 7.41Q47.20 6.88 47.95 6.57L47.95 6.57L47.95 6.57Q48.71 6.26 49.62 6.26L49.62 6.26L49.62 6.26Q50.51 6.26 51.19 6.55L51.19 6.55L51.19 6.55Q51.86 6.84 52.32 7.32L52.32 7.32L52.32 7.32Q52.78 7.81 53.01 8.46L53.01 8.46L53.01 8.46Q53.25 9.11 53.25 9.84L53.25 9.84L53.25 9.84Q53.25 10.68 52.94 11.40L52.94 11.40L52.94 11.40Q52.64 12.12 52.09 12.65L52.09 12.65L52.09 12.65Q51.55 13.18 50.79 13.48L50.79 13.48L50.79 13.48Q50.04 13.78 49.13 13.78ZM49.42 12.46L49.42 12.46L49.42 12.46Q49.80 12.46 50.12 12.30L50.12 12.30L50.12 12.30Q50.44 12.14 50.67 11.84L50.67 11.84L50.67 11.84Q50.90 11.54 51.03 11.11L51.03 11.11L51.03 11.11Q51.15 10.68 51.15 10.13L51.15 10.13L51.15 10.13Q51.15 9.61 51.03 9.15L51.03 9.15L51.03 9.15Q50.91 8.68 50.67 8.34L50.67 8.34L50.67 8.34Q50.44 7.99 50.10 7.79L50.10 7.79L50.10 7.79Q49.77 7.59 49.33 7.59L49.33 7.59L49.33 7.59Q48.95 7.59 48.63 7.75L48.63 7.75L48.63 7.75Q48.31 7.92 48.08 8.22L48.08 8.22L48.08 8.22Q47.86 8.53 47.73 8.97L47.73 8.97L47.73 8.97Q47.61 9.40 47.61 9.93L47.61 9.93L47.61 9.93Q47.61 10.47 47.73 10.93L47.73 10.93L47.73 10.93Q47.86 11.40 48.09 11.73L48.09 11.73L48.09 11.73Q48.33 12.07 48.67 12.26L48.67 12.26L48.67 12.26Q49 12.46 49.42 12.46ZM60.38 12.01L60.38 12.93L60.38 12.93Q59.83 13.38 59.22 13.58L59.22 13.58L59.22 13.58Q58.62 13.78 57.94 13.78L57.94 13.78L57.94 13.78Q57.14 13.78 56.51 13.53L56.51 13.53L56.51 13.53Q55.88 13.28 55.45 12.82L55.45 12.82L55.45 12.82Q55.01 12.37 54.78 11.74L54.78 11.74L54.78 11.74Q54.54 11.11 54.54 10.36L54.54 10.36L54.54 10.36Q54.54 9.45 54.87 8.70L54.87 8.70L54.87 8.70Q55.19 7.94 55.76 7.40L55.76 7.40L55.76 7.40Q56.32 6.86 57.08 6.56L57.08 6.56L57.08 6.56Q57.85 6.26 58.73 6.26L58.73 6.26L58.73 6.26Q59.08 6.26 59.54 6.32L59.54 6.32L59.54 6.32Q60.01 6.38 60.44 6.54L60.44 6.54L60.12 7.95L59.98 8.02L59.98 8.02Q59.86 7.94 59.70 7.86L59.70 7.86L59.70 7.86Q59.54 7.78 59.36 7.72L59.36 7.72L59.36 7.72Q59.17 7.66 58.97 7.63L58.97 7.63L58.97 7.63Q58.78 7.59 58.58 7.59L58.58 7.59L58.58 7.59Q58.16 7.59 57.80 7.75L57.80 7.75L57.80 7.75Q57.45 7.92 57.19 8.22L57.19 8.22L57.19 8.22Q56.92 8.53 56.78 8.98L56.78 8.98L56.78 8.98Q56.63 9.43 56.63 9.99L56.63 9.99L56.63 9.99Q56.63 10.59 56.80 11.03L56.80 11.03L56.80 11.03Q56.96 11.48 57.26 11.77L57.26 11.77L57.26 11.77Q57.57 12.07 57.98 12.21L57.98 12.21L57.98 12.21Q58.39 12.35 58.88 12.35L58.88 12.35L58.88 12.35Q59.19 12.35 59.55 12.28L59.55 12.28L59.55 12.28Q59.92 12.21 60.38 12.01L60.38 12.01ZM62.11 13.64L62.11 2.69L64.13 2.69L64.13 13.64L62.11 13.64ZM69.30 13.64L66.90 13.64L64.46 9.86L67.17 6.44L69.10 6.44L66.40 9.57L69.30 13.64ZM70.18 13.29L70.51 11.89L70.63 11.82L70.63 11.82Q71.18 12.12 71.78 12.29L71.78 12.29L71.78 12.29Q72.38 12.46 72.87 12.46L72.87 12.46L72.87 12.46Q73.47 12.46 73.77 12.22L73.77 12.22L73.77 12.22Q74.08 11.98 74.08 11.64L74.08 11.64L74.08 11.64Q74.08 11.39 73.92 11.23L73.92 11.23L73.92 11.23Q73.77 11.07 73.51 10.95L73.51 10.95L73.51 10.95Q73.25 10.84 72.92 10.76L72.92 10.76L72.92 10.76Q72.58 10.67 72.24 10.57L72.24 10.57L72.24 10.57Q71.90 10.47 71.57 10.33L71.57 10.33L71.57 10.33Q71.24 10.19 70.98 9.98L70.98 9.98L70.98 9.98Q70.72 9.76 70.56 9.45L70.56 9.45L70.56 9.45Q70.40 9.13 70.40 8.67L70.40 8.67L70.40 8.67Q70.40 8.16 70.62 7.71L70.62 7.71L70.62 7.71Q70.84 7.27 71.26 6.95L71.26 6.95L71.26 6.95Q71.67 6.62 72.28 6.44L72.28 6.44L72.28 6.44Q72.88 6.26 73.66 6.26L73.66 6.26L73.66 6.26Q73.85 6.26 74.10 6.28L74.10 6.28L74.10 6.28Q74.35 6.29 74.62 6.32L74.62 6.32L74.62 6.32Q74.89 6.35 75.15 6.40L75.15 6.40L75.15 6.40Q75.41 6.45 75.63 6.51L75.63 6.51L75.30 7.90L75.16 7.98L75.16 7.98Q74.94 7.88 74.69 7.80L74.69 7.80L74.69 7.80Q74.45 7.72 74.21 7.68L74.21 7.68L74.21 7.68Q73.98 7.64 73.77 7.61L73.77 7.61L73.77 7.61Q73.55 7.59 73.38 7.59L73.38 7.59L73.38 7.59Q72.80 7.59 72.51 7.81L72.51 7.81L72.51 7.81Q72.22 8.03 72.22 8.36L72.22 8.36L72.22 8.36Q72.22 8.62 72.38 8.78L72.38 8.78L72.38 8.78Q72.54 8.95 72.80 9.06L72.80 9.06L72.80 9.06Q73.06 9.18 73.39 9.27L73.39 9.27L73.39 9.27Q73.73 9.35 74.07 9.45L74.07 9.45L74.07 9.45Q74.42 9.55 74.75 9.68L74.75 9.68L74.75 9.68Q75.09 9.82 75.35 10.03L75.35 10.03L75.35 10.03Q75.61 10.25 75.77 10.56L75.77 10.56L75.77 10.56Q75.93 10.87 75.93 11.33L75.93 11.33L75.93 11.33Q75.93 11.83 75.71 12.28L75.71 12.28L75.71 12.28Q75.50 12.73 75.10 13.06L75.10 13.06L75.10 13.06Q74.69 13.39 74.09 13.59L74.09 13.59L74.09 13.59Q73.49 13.78 72.73 13.78L72.73 13.78L72.73 13.78Q72.43 13.78 72.10 13.75L72.10 13.75L72.10 13.75Q71.78 13.72 71.45 13.66L71.45 13.66L71.45 13.66Q71.12 13.60 70.80 13.50L70.80 13.50L70.80 13.50Q70.48 13.41 70.18 13.29L70.18 13.29Z"></path></g><defs data-v-423bf9ae=""><linearGradient data-v-423bf9ae="" gradientTransform="rotate(25)" id="45d932b4-62a0-42d0-bec1-4319944d971d" x1="0%" y1="0%" x2="100%" y2="0%"><stop data-v-423bf9ae="" offset="0%" style="stop-color: rgb(48, 34, 58); stop-opacity: 1;"></stop><stop data-v-423bf9ae="" offset="100%" style="stop-color: rgb(241, 56, 0); stop-opacity: 1;"></stop></linearGradient></defs><g data-v-423bf9ae="" id="7d7670ee-c45e-40b7-ae9d-e2084d593f21" transform="matrix(1.1111111111111112,0,0,1.1111111111111112,-27.22222222222223,0.44444444444444287)" stroke="none" fill="url(#45d932b4-62a0-42d0-bec1-4319944d971d)"><path d="M78.288 62L64 47.944V41h-7v-5h7V20h-6.932l-5.826-4H53V0H36v16h1.822l-5.759 4H25v16h16V20h-6.118l5.759-4H48.4l5.826 4H48v16h7v5h-7v16h7v5h-7v16h7v5h-7v17h16V83h-7v-5h7V62h-7v-5h7v-6.757L75.988 62H71v16h16V62h-8.712zM40 3h9v10h-9V3z"></path></g><!----><g data-v-423bf9ae="" id="0ec47c42-ca5e-4aaa-9427-db4005203ccb" fill="#250A05" transform="matrix(1.2423507776322316,0,0,1.2423507776322316,88.54103207706368,55.900241369035946)"><path d="M0.28 13.33L0.28 13.33L0.28 13.33Q0.28 13.13 0.49 13.06L0.49 13.06L0.49 13.06Q0.94 12.89 1.27 12.31L1.27 12.31L1.27 12.31Q1.61 11.73 2.94 8.83L2.94 8.83L2.94 8.83Q4.31 5.87 5.36 3.63L5.36 3.63L5.36 3.63Q5.46 3.42 5.54 3.36L5.54 3.36L5.54 3.36Q5.61 3.30 5.78 3.30L5.78 3.30L5.78 3.30Q5.91 3.30 5.95 3.36L5.95 3.36L5.95 3.36Q5.99 3.42 6.13 3.82L6.13 3.82L6.13 3.82Q6.22 4.06 6.28 4.23L6.28 4.23L6.28 4.23Q6.34 4.40 6.48 4.77L6.48 4.77L6.48 4.77Q6.62 5.15 6.79 5.56L6.79 5.56L6.79 5.56Q7.24 6.66 8.34 9.22L8.34 9.22L8.34 9.22Q9.44 11.77 9.53 11.98L9.53 11.98L9.53 11.98Q9.77 12.46 10.07 12.71L10.07 12.71L10.07 12.71Q10.36 12.95 10.58 12.97L10.58 12.97L10.58 12.97Q10.79 12.99 10.94 13.04L10.94 13.04L10.94 13.04Q11.09 13.09 11.09 13.26L11.09 13.26L11.09 13.26Q11.09 13.47 10.71 13.47L10.71 13.47L10.71 13.47Q10.56 13.47 10.11 13.43L10.11 13.43L10.11 13.43Q9.66 13.38 9.45 13.38L9.45 13.38L9.45 13.38Q9.18 13.38 8.76 13.41L8.76 13.41L8.76 13.41Q8.34 13.44 8.15 13.44L8.15 13.44L8.15 13.44Q7.71 13.44 7.59 13.40L7.59 13.40L7.59 13.40Q7.48 13.37 7.48 13.24L7.48 13.24L7.48 13.24Q7.48 13.15 7.59 13.08L7.59 13.08L7.59 13.08Q7.70 13.02 7.83 13.00L7.83 13.00L7.83 13.00Q7.95 12.98 8.06 12.87L8.06 12.87L8.06 12.87Q8.18 12.77 8.18 12.59L8.18 12.59L8.18 12.59Q8.18 12.28 7.83 11.33L7.83 11.33L7.83 11.33Q7.48 10.37 7.24 9.93L7.24 9.93L7.24 9.93Q7.11 9.69 6.66 9.69L6.66 9.69L6.66 9.69Q6.59 9.69 6.05 9.70L6.05 9.70L6.05 9.70Q5.50 9.72 4.97 9.72L4.97 9.72L4.23 9.72L4.23 9.72Q3.60 9.72 3.44 9.79L3.44 9.79L3.44 9.79Q3.28 9.86 3.15 10.12L3.15 10.12L3.15 10.12Q3.07 10.30 2.87 10.70L2.87 10.70L2.87 10.70Q2.67 11.10 2.60 11.26L2.60 11.26L2.60 11.26Q2.53 11.41 2.43 11.65L2.43 11.65L2.43 11.65Q2.32 11.90 2.29 12.05L2.29 12.05L2.29 12.05Q2.25 12.19 2.25 12.31L2.25 12.31L2.25 12.31Q2.25 12.63 2.42 12.80L2.42 12.80L2.42 12.80Q2.58 12.96 2.77 12.98L2.77 12.98L2.77 12.98Q2.97 13.01 3.13 13.06L3.13 13.06L3.13 13.06Q3.29 13.12 3.29 13.26L3.29 13.26L3.29 13.26Q3.29 13.36 3.25 13.40L3.25 13.40L3.25 13.40Q3.21 13.45 3.05 13.45L3.05 13.45L3.05 13.45Q2.97 13.45 2.57 13.45L2.57 13.45L2.57 13.45Q2.17 13.44 1.89 13.44L1.89 13.44L1.89 13.44Q1.58 13.44 1.20 13.47L1.20 13.47L1.20 13.47Q0.81 13.50 0.69 13.50L0.69 13.50L0.69 13.50Q0.28 13.50 0.28 13.33ZM3.79 8.71L3.79 8.71L3.79 8.71Q3.79 8.89 3.92 8.93L3.92 8.93L3.92 8.93Q4.05 8.97 4.51 8.97L4.51 8.97L4.94 8.97L6.27 8.96L6.27 8.96Q6.82 8.96 6.82 8.74L6.82 8.74L6.82 8.74Q6.82 8.55 6.13 7.01L6.13 7.01L6.13 7.01Q5.45 5.46 5.26 5.46L5.26 5.46L5.26 5.46Q5.14 5.46 4.47 7.01L4.47 7.01L4.47 7.01Q3.79 8.55 3.79 8.71ZM18.65 3.68L18.65 3.68L18.65 3.68Q18.65 3.64 18.67 3.60L18.67 3.60L18.67 3.60Q18.69 3.56 18.78 3.50L18.78 3.50L18.78 3.50Q18.87 3.44 19.01 3.44L19.01 3.44L19.39 3.44L19.39 3.44Q19.73 3.44 20.48 3.49L20.48 3.49L20.48 3.49Q21.22 3.53 22.43 3.53L22.43 3.53L22.43 3.53Q23.42 3.53 24.19 3.49L24.19 3.49L24.19 3.49Q24.96 3.46 25.61 3.46L25.61 3.46L25.61 3.46Q25.84 3.46 25.84 3.79L25.84 3.79L25.84 3.79Q25.84 3.92 25.82 4.11L25.82 4.11L25.82 4.11Q25.79 4.30 25.73 4.61L25.73 4.61L25.73 4.61Q25.68 4.93 25.65 5.22L25.65 5.22L25.65 5.22Q25.62 5.50 25.44 5.50L25.44 5.50L25.44 5.50Q25.24 5.50 25.24 5.22L25.24 5.22L25.24 5.22Q25.24 4.30 24.60 4.26L24.60 4.26L24.60 4.26Q22.48 4.09 22.08 4.09L22.08 4.09L22.08 4.09Q21.45 4.09 21.30 4.24L21.30 4.24L21.30 4.24Q21.15 4.40 21.14 4.87L21.14 4.87L21.14 4.87Q21.14 4.94 21.14 4.98L21.14 4.98L21.14 4.98Q21.10 5.74 21.10 7.32L21.10 7.32L21.10 7.32Q21.10 8.01 21.35 8.02L21.35 8.02L21.35 8.02Q21.42 8.02 21.54 8.03L21.54 8.03L21.54 8.03Q21.66 8.04 21.70 8.04L21.70 8.04L21.70 8.04Q21.80 8.04 21.99 8.03L21.99 8.03L21.99 8.03Q22.19 8.02 22.30 8.02L22.30 8.02L22.74 8.02L22.74 8.02Q23.58 8.02 23.85 7.97L23.85 7.97L23.85 7.97Q24.12 7.92 24.35 7.77L24.35 7.77L24.35 7.77Q24.47 7.69 24.54 7.57L24.54 7.57L24.54 7.57Q24.61 7.46 24.64 7.31L24.64 7.31L24.64 7.31Q24.67 7.15 24.71 7.08L24.71 7.08L24.71 7.08Q24.75 7.01 24.88 7.01L24.88 7.01L24.88 7.01Q25.00 7.01 25.03 7.06L25.03 7.06L25.03 7.06Q25.06 7.10 25.06 7.24L25.06 7.24L25.06 7.24Q25.06 7.34 25.00 7.73L25.00 7.73L25.00 7.73Q24.93 8.12 24.93 8.40L24.93 8.40L24.93 8.40Q24.93 8.67 24.98 9.05L24.98 9.05L24.98 9.05Q25.03 9.44 25.03 9.55L25.03 9.55L25.03 9.55Q25.03 9.77 24.98 9.83L24.98 9.83L24.98 9.83Q24.93 9.90 24.84 9.90L24.84 9.90L24.84 9.90Q24.60 9.90 24.54 9.55L24.54 9.55L24.54 9.55Q24.54 9.52 24.53 9.42L24.53 9.42L24.53 9.42Q24.51 9.32 24.51 9.28L24.51 9.28L24.51 9.28Q24.50 9.24 24.47 9.16L24.47 9.16L24.47 9.16Q24.44 9.09 24.42 9.04L24.42 9.04L24.42 9.04Q24.39 9.00 24.35 8.95L24.35 8.95L24.35 8.95Q24.30 8.90 24.23 8.88L24.23 8.88L24.23 8.88Q24.04 8.79 23.53 8.74L23.53 8.74L23.53 8.74Q23.03 8.68 22.88 8.68L22.88 8.68L21.66 8.68L21.66 8.68Q21.08 8.68 21.08 8.95L21.08 8.95L21.08 8.95Q21.08 9.35 21.07 9.96L21.07 9.96L21.07 9.96Q21.06 10.57 21.06 10.96L21.06 10.96L21.06 10.96Q21.06 11.06 21.05 11.25L21.05 11.25L21.05 11.25Q21.04 11.44 21.04 11.52L21.04 11.52L21.04 11.52Q21.04 11.80 21.10 12.08L21.10 12.08L21.10 12.08Q21.15 12.36 21.43 12.67L21.43 12.67L21.43 12.67Q21.70 12.98 22.16 12.98L22.16 12.98L22.16 12.98Q22.58 12.98 22.58 13.23L22.58 13.23L22.58 13.23Q22.58 13.27 22.55 13.33L22.55 13.33L22.55 13.33Q22.53 13.38 22.42 13.44L22.42 13.44L22.42 13.44Q22.32 13.50 22.15 13.50L22.15 13.50L22.15 13.50Q21.92 13.50 21.44 13.44L21.44 13.44L21.44 13.44Q20.96 13.38 20.79 13.38L20.79 13.38L20.79 13.38Q20.40 13.38 19.92 13.43L19.92 13.43L19.92 13.43Q19.43 13.47 19.10 13.47L19.10 13.47L19.10 13.47Q18.82 13.47 18.82 13.31L18.82 13.31L18.82 13.31Q18.82 13.13 18.88 13.09L18.88 13.09L18.88 13.09Q18.94 13.05 19.42 12.88L19.42 12.88L19.42 12.88Q19.78 12.75 19.87 12.13L19.87 12.13L19.87 12.13Q19.95 11.51 19.96 9.60L19.96 9.60L19.96 9.60Q19.96 8.86 19.96 8.44L19.96 8.44L19.96 8.44Q19.96 8.06 19.99 7.26L19.99 7.26L19.99 7.26Q20.01 6.45 20.01 6.01L20.01 6.01L20.01 5.19L20.01 5.19Q20.01 4.27 19.35 3.96L19.35 3.96L19.35 3.96Q19.25 3.92 19.11 3.90L19.11 3.90L19.11 3.90Q18.97 3.88 18.88 3.88L18.88 3.88L18.88 3.88Q18.79 3.88 18.72 3.83L18.72 3.83L18.72 3.83Q18.65 3.78 18.65 3.68ZM33.40 3.70L33.40 3.70L33.40 3.70Q33.40 3.47 33.81 3.47L33.81 3.47L36.13 3.47L36.13 3.47Q36.46 3.47 36.88 3.45L36.88 3.45L36.88 3.45Q37.30 3.43 37.53 3.43L37.53 3.43L37.53 3.43Q38.79 3.43 39.69 4.07L39.69 4.07L39.69 4.07Q40.59 4.70 40.59 5.78L40.59 5.78L40.59 5.78Q40.59 6.50 40.31 7.03L40.31 7.03L40.31 7.03Q40.04 7.57 39.71 7.81L39.71 7.81L39.71 7.81Q39.38 8.05 39.11 8.22L39.11 8.22L39.11 8.22Q38.84 8.40 38.84 8.46L38.84 8.46L38.84 8.46Q38.84 8.62 40.01 10.27L40.01 10.27L40.01 10.27Q41.19 11.91 41.62 12.38L41.62 12.38L41.62 12.38Q42.15 13.03 42.91 13.03L42.91 13.03L42.91 13.03Q43.11 13.03 43.11 13.20L43.11 13.20L43.11 13.20Q43.11 13.41 42.94 13.48L42.94 13.48L42.94 13.48Q42.77 13.55 42.07 13.55L42.07 13.55L42.07 13.55Q41.41 13.55 40.87 13.23L40.87 13.23L40.87 13.23Q40.17 12.82 38.50 10.09L38.50 10.09L38.50 10.09Q38.40 9.94 38.36 9.87L38.36 9.87L38.36 9.87Q37.69 8.78 37.32 8.78L37.32 8.78L37.03 8.78L36.18 8.78L36.18 8.78Q36.01 8.78 35.97 8.92L35.97 8.92L35.97 8.92Q35.94 9.06 35.94 9.77L35.94 9.77L35.94 9.77Q35.94 10.44 35.94 10.88L35.94 10.88L35.94 10.88Q35.94 11.31 35.95 11.43L35.95 11.43L35.95 11.43Q35.95 11.55 35.95 11.63L35.95 11.63L35.95 11.63Q35.95 11.70 35.95 11.75L35.95 11.75L35.95 11.75Q35.95 12.32 36.22 12.63L36.22 12.63L36.22 12.63Q36.48 12.95 36.81 13.00L36.81 13.00L36.81 13.00Q37.14 13.05 37.41 13.11L37.41 13.11L37.41 13.11Q37.67 13.17 37.67 13.31L37.67 13.31L37.67 13.31Q37.67 13.54 37.42 13.54L37.42 13.54L37.42 13.54Q37.41 13.54 36.46 13.49L36.46 13.49L36.46 13.49Q35.50 13.44 35.42 13.44L35.42 13.44L35.42 13.44Q35.01 13.44 34.45 13.47L34.45 13.47L34.45 13.47Q33.89 13.50 33.88 13.50L33.88 13.50L33.88 13.50Q33.59 13.50 33.59 13.27L33.59 13.27L33.59 13.27Q33.59 13.12 33.77 13.05L33.77 13.05L33.77 13.05Q33.95 12.99 34.17 12.96L34.17 12.96L34.17 12.96Q34.40 12.94 34.58 12.66L34.58 12.66L34.58 12.66Q34.76 12.38 34.76 11.86L34.76 11.86L34.76 11.86Q34.76 11.49 34.77 9.90L34.77 9.90L34.77 9.90Q34.78 8.30 34.78 7.45L34.78 7.45L34.78 7.45Q34.78 6.58 34.77 5.86L34.77 5.86L34.77 5.86Q34.76 5.14 34.76 5.08L34.76 5.08L34.76 5.08Q34.76 4.56 34.55 4.29L34.55 4.29L34.55 4.29Q34.34 4.02 34.08 3.98L34.08 3.98L34.08 3.98Q33.82 3.95 33.61 3.89L33.61 3.89L33.61 3.89Q33.40 3.84 33.40 3.70ZM35.94 5.54L35.94 5.94L35.94 5.94Q35.94 7.38 35.95 7.72L35.95 7.72L35.95 7.72Q35.97 8.06 36.05 8.12L36.05 8.12L36.05 8.12Q36.26 8.25 36.65 8.25L36.65 8.25L36.79 8.25L37.20 8.25L37.20 8.25Q38.39 8.25 38.90 7.70L38.90 7.70L38.90 7.70Q39.41 7.15 39.41 6.30L39.41 6.30L39.41 6.30Q39.41 5.43 38.73 4.72L38.73 4.72L38.73 4.72Q38.05 4.00 36.68 4.00L36.68 4.00L36.68 4.00Q36.16 4.00 36.05 4.28L36.05 4.28L36.05 4.28Q35.94 4.55 35.94 5.54L35.94 5.54ZM50.46 3.71L50.46 3.71L50.46 3.71Q50.46 3.50 50.85 3.50L50.85 3.50L50.85 3.50Q50.99 3.50 51.49 3.53L51.49 3.53L51.49 3.53Q52.00 3.56 52.43 3.56L52.43 3.56L52.43 3.56Q52.70 3.56 52.94 3.54L52.94 3.54L52.94 3.54Q53.19 3.53 53.66 3.53L53.66 3.53L53.66 3.53Q54.04 3.53 54.04 3.72L54.04 3.72L54.04 3.72Q54.04 3.84 53.40 4.10L53.40 4.10L53.40 4.10Q52.95 4.28 52.95 5.71L52.95 5.71L52.95 5.71Q52.95 7.60 52.93 9.05L52.93 9.05L52.93 9.05Q52.91 10.50 52.91 10.89L52.91 10.89L52.91 10.89Q52.91 12.07 53.26 12.59L53.26 12.59L53.26 12.59Q53.56 13.02 53.93 13.02L53.93 13.02L53.93 13.02Q53.96 13.02 54.07 13.03L54.07 13.03L54.07 13.03Q54.18 13.03 54.21 13.03L54.21 13.03L54.21 13.03Q54.31 13.03 54.40 13.08L54.40 13.08L54.40 13.08Q54.50 13.13 54.50 13.19L54.50 13.19L54.50 13.19Q54.50 13.34 54.43 13.39L54.43 13.39L54.43 13.39Q54.35 13.44 54.15 13.44L54.15 13.44L54.15 13.44Q53.73 13.44 53.38 13.41L53.38 13.41L53.38 13.41Q53.02 13.38 52.82 13.38L52.82 13.38L52.82 13.38Q52.43 13.38 51.97 13.42L51.97 13.42L51.97 13.42Q51.51 13.45 51.28 13.45L51.28 13.45L51.28 13.45Q50.65 13.45 50.65 13.24L50.65 13.24L50.65 13.24Q50.65 13.12 50.79 13.07L50.79 13.07L50.79 13.07Q50.92 13.02 51.09 13.00L51.09 13.00L51.09 13.00Q51.25 12.98 51.44 12.82L51.44 12.82L51.44 12.82Q51.62 12.66 51.69 12.35L51.69 12.35L51.69 12.35Q51.72 12.25 51.78 10.76L51.78 10.76L51.78 10.76Q51.84 9.27 51.84 8.61L51.84 8.61L51.84 7.81L51.84 7.81Q51.84 7.63 51.85 7.12L51.85 7.12L51.85 7.12Q51.86 6.61 51.86 6.30L51.86 6.30L51.86 5.66L51.86 5.66Q51.86 5.04 51.80 4.63L51.80 4.63L51.80 4.63Q51.76 4.30 51.43 4.12L51.43 4.12L51.43 4.12Q51.10 3.93 50.75 3.92L50.75 3.92L50.75 3.92Q50.46 3.91 50.46 3.71ZM62.38 8.90L62.38 8.90L62.38 8.90Q62.38 7.38 62.97 6.16L62.97 6.16L62.97 6.16Q63.56 4.94 64.78 4.19L64.78 4.19L64.78 4.19Q66.01 3.44 67.69 3.44L67.69 3.44L67.69 3.44Q68.54 3.44 69.41 3.70L69.41 3.70L69.41 3.70Q70.28 3.95 70.80 4.20L70.80 4.20L71.32 4.47L71.32 4.47Q71.36 4.47 71.46 4.40L71.46 4.40L71.46 4.40Q71.55 4.33 71.61 4.33L71.61 4.33L71.61 4.33Q71.68 4.33 71.75 4.38L71.75 4.38L71.75 4.38Q71.82 4.44 71.82 4.55L71.82 4.55L71.82 4.55Q71.83 4.96 71.88 5.41L71.88 5.41L71.88 5.41Q71.93 5.87 71.97 6.16L71.97 6.16L71.97 6.16Q72.02 6.45 72.02 6.51L72.02 6.51L72.02 6.51Q72.02 6.76 71.85 6.76L71.85 6.76L71.85 6.76Q71.72 6.76 71.61 6.57L71.61 6.57L71.61 6.57Q70.25 4.02 67.69 4.02L67.69 4.02L67.69 4.02Q65.94 4.02 64.82 5.14L64.82 5.14L64.82 5.14Q63.70 6.26 63.70 8.06L63.70 8.06L63.70 8.06Q63.70 9.06 63.96 9.93L63.96 9.93L63.96 9.93Q64.22 10.79 64.74 11.51L64.74 11.51L64.74 11.51Q65.27 12.24 66.19 12.66L66.19 12.66L66.19 12.66Q67.12 13.08 68.35 13.08L68.35 13.08L68.35 13.08Q70.36 13.08 71.74 10.98L71.74 10.98L71.74 10.98Q71.79 10.88 71.95 10.88L71.95 10.88L71.95 10.88Q72.07 10.88 72.07 11.07L72.07 11.07L72.07 11.07Q72.07 11.23 72.02 11.49L72.02 11.49L72.02 11.49Q71.97 11.75 71.90 12.06L71.90 12.06L71.90 12.06Q71.83 12.38 71.82 12.45L71.82 12.45L71.82 12.45Q71.79 12.60 71.60 12.70L71.60 12.70L71.60 12.70Q70.84 13.06 70.41 13.24L70.41 13.24L70.41 13.24Q69.99 13.43 69.33 13.57L69.33 13.57L69.33 13.57Q68.67 13.72 67.98 13.72L67.98 13.72L67.98 13.72Q66.77 13.72 65.79 13.43L65.79 13.43L65.79 13.43Q64.81 13.13 64.18 12.66L64.18 12.66L64.18 12.66Q63.56 12.18 63.14 11.54L63.14 11.54L63.14 11.54Q62.72 10.91 62.55 10.25L62.55 10.25L62.55 10.25Q62.38 9.60 62.38 8.90ZM79.73 13.33L79.73 13.33L79.73 13.33Q79.73 13.13 79.94 13.06L79.94 13.06L79.94 13.06Q80.39 12.89 80.72 12.31L80.72 12.31L80.72 12.31Q81.06 11.73 82.39 8.83L82.39 8.83L82.39 8.83Q83.76 5.87 84.81 3.63L84.81 3.63L84.81 3.63Q84.91 3.42 84.99 3.36L84.99 3.36L84.99 3.36Q85.06 3.30 85.23 3.30L85.23 3.30L85.23 3.30Q85.36 3.30 85.40 3.36L85.40 3.36L85.40 3.36Q85.44 3.42 85.58 3.82L85.58 3.82L85.58 3.82Q85.67 4.06 85.73 4.23L85.73 4.23L85.73 4.23Q85.79 4.40 85.93 4.77L85.93 4.77L85.93 4.77Q86.07 5.15 86.24 5.56L86.24 5.56L86.24 5.56Q86.69 6.66 87.79 9.22L87.79 9.22L87.79 9.22Q88.89 11.77 88.98 11.98L88.98 11.98L88.98 11.98Q89.22 12.46 89.52 12.71L89.52 12.71L89.52 12.71Q89.81 12.95 90.03 12.97L90.03 12.97L90.03 12.97Q90.24 12.99 90.39 13.04L90.39 13.04L90.39 13.04Q90.54 13.09 90.54 13.26L90.54 13.26L90.54 13.26Q90.54 13.47 90.16 13.47L90.16 13.47L90.16 13.47Q90.01 13.47 89.56 13.43L89.56 13.43L89.56 13.43Q89.11 13.38 88.90 13.38L88.90 13.38L88.90 13.38Q88.63 13.38 88.21 13.41L88.21 13.41L88.21 13.41Q87.79 13.44 87.60 13.44L87.60 13.44L87.60 13.44Q87.16 13.44 87.05 13.40L87.05 13.40L87.05 13.40Q86.93 13.37 86.93 13.24L86.93 13.24L86.93 13.24Q86.93 13.15 87.04 13.08L87.04 13.08L87.04 13.08Q87.15 13.02 87.28 13.00L87.28 13.00L87.28 13.00Q87.40 12.98 87.51 12.87L87.51 12.87L87.51 12.87Q87.63 12.77 87.63 12.59L87.63 12.59L87.63 12.59Q87.63 12.28 87.28 11.33L87.28 11.33L87.28 11.33Q86.93 10.37 86.69 9.93L86.69 9.93L86.69 9.93Q86.56 9.69 86.11 9.69L86.11 9.69L86.11 9.69Q86.04 9.69 85.50 9.70L85.50 9.70L85.50 9.70Q84.95 9.72 84.42 9.72L84.42 9.72L83.68 9.72L83.68 9.72Q83.05 9.72 82.89 9.79L82.89 9.79L82.89 9.79Q82.73 9.86 82.60 10.12L82.60 10.12L82.60 10.12Q82.52 10.30 82.32 10.70L82.32 10.70L82.32 10.70Q82.12 11.10 82.05 11.26L82.05 11.26L82.05 11.26Q81.98 11.41 81.88 11.65L81.88 11.65L81.88 11.65Q81.77 11.90 81.74 12.05L81.74 12.05L81.74 12.05Q81.70 12.19 81.70 12.31L81.70 12.31L81.70 12.31Q81.70 12.63 81.87 12.80L81.87 12.80L81.87 12.80Q82.03 12.96 82.22 12.98L82.22 12.98L82.22 12.98Q82.42 13.01 82.58 13.06L82.58 13.06L82.58 13.06Q82.74 13.12 82.74 13.26L82.74 13.26L82.74 13.26Q82.74 13.36 82.70 13.40L82.70 13.40L82.70 13.40Q82.66 13.45 82.50 13.45L82.50 13.45L82.50 13.45Q82.42 13.45 82.02 13.45L82.02 13.45L82.02 13.45Q81.62 13.44 81.34 13.44L81.34 13.44L81.34 13.44Q81.03 13.44 80.65 13.47L80.65 13.47L80.65 13.47Q80.26 13.50 80.14 13.50L80.14 13.50L80.14 13.50Q79.73 13.50 79.73 13.33ZM83.24 8.71L83.24 8.71L83.24 8.71Q83.24 8.89 83.37 8.93L83.37 8.93L83.37 8.93Q83.50 8.97 83.96 8.97L83.96 8.97L84.39 8.97L85.72 8.96L85.72 8.96Q86.27 8.96 86.27 8.74L86.27 8.74L86.27 8.74Q86.27 8.55 85.58 7.01L85.58 7.01L85.58 7.01Q84.90 5.46 84.71 5.46L84.71 5.46L84.71 5.46Q84.59 5.46 83.92 7.01L83.92 7.01L83.92 7.01Q83.24 8.55 83.24 8.71ZM108.42 8.90L108.42 8.90L108.42 8.90Q108.42 7.38 109.00 6.16L109.00 6.16L109.00 6.16Q109.59 4.94 110.82 4.19L110.82 4.19L110.82 4.19Q112.04 3.44 113.72 3.44L113.72 3.44L113.72 3.44Q114.58 3.44 115.44 3.70L115.44 3.70L115.44 3.70Q116.31 3.95 116.83 4.20L116.83 4.20L117.35 4.47L117.35 4.47Q117.39 4.47 117.49 4.40L117.49 4.40L117.49 4.40Q117.59 4.33 117.64 4.33L117.64 4.33L117.64 4.33Q117.71 4.33 117.78 4.38L117.78 4.38L117.78 4.38Q117.85 4.44 117.85 4.55L117.85 4.55L117.85 4.55Q117.87 4.96 117.91 5.41L117.91 5.41L117.91 5.41Q117.96 5.87 118.01 6.16L118.01 6.16L118.01 6.16Q118.05 6.45 118.05 6.51L118.05 6.51L118.05 6.51Q118.05 6.76 117.88 6.76L117.88 6.76L117.88 6.76Q117.75 6.76 117.64 6.57L117.64 6.57L117.64 6.57Q116.28 4.02 113.72 4.02L113.72 4.02L113.72 4.02Q111.97 4.02 110.85 5.14L110.85 5.14L110.85 5.14Q109.73 6.26 109.73 8.06L109.73 8.06L109.73 8.06Q109.73 9.06 109.99 9.93L109.99 9.93L109.99 9.93Q110.25 10.79 110.77 11.51L110.77 11.51L110.77 11.51Q111.30 12.24 112.22 12.66L112.22 12.66L112.22 12.66Q113.15 13.08 114.38 13.08L114.38 13.08L114.38 13.08Q116.40 13.08 117.77 10.98L117.77 10.98L117.77 10.98Q117.82 10.88 117.98 10.88L117.98 10.88L117.98 10.88Q118.10 10.88 118.10 11.07L118.10 11.07L118.10 11.07Q118.10 11.23 118.05 11.49L118.05 11.49L118.05 11.49Q118.01 11.75 117.94 12.06L117.94 12.06L117.94 12.06Q117.87 12.38 117.85 12.45L117.85 12.45L117.85 12.45Q117.82 12.60 117.63 12.70L117.63 12.70L117.63 12.70Q116.87 13.06 116.44 13.24L116.44 13.24L116.44 13.24Q116.02 13.43 115.36 13.57L115.36 13.57L115.36 13.57Q114.70 13.72 114.02 13.72L114.02 13.72L114.02 13.72Q112.80 13.72 111.82 13.43L111.82 13.43L111.82 13.43Q110.84 13.13 110.22 12.66L110.22 12.66L110.22 12.66Q109.59 12.18 109.17 11.54L109.17 11.54L109.17 11.54Q108.75 10.91 108.58 10.25L108.58 10.25L108.58 10.25Q108.42 9.60 108.42 8.90ZM126.38 3.70L126.38 3.70L126.38 3.70Q126.38 3.47 126.78 3.47L126.78 3.47L129.11 3.47L129.11 3.47Q129.43 3.47 129.85 3.45L129.85 3.45L129.85 3.45Q130.27 3.43 130.51 3.43L130.51 3.43L130.51 3.43Q131.77 3.43 132.66 4.07L132.66 4.07L132.66 4.07Q133.56 4.70 133.56 5.78L133.56 5.78L133.56 5.78Q133.56 6.50 133.29 7.03L133.29 7.03L133.29 7.03Q133.01 7.57 132.69 7.81L132.69 7.81L132.69 7.81Q132.36 8.05 132.08 8.22L132.08 8.22L132.08 8.22Q131.81 8.40 131.81 8.46L131.81 8.46L131.81 8.46Q131.81 8.62 132.99 10.27L132.99 10.27L132.99 10.27Q134.16 11.91 134.60 12.38L134.60 12.38L134.60 12.38Q135.13 13.03 135.88 13.03L135.88 13.03L135.88 13.03Q136.08 13.03 136.08 13.20L136.08 13.20L136.08 13.20Q136.08 13.41 135.91 13.48L135.91 13.48L135.91 13.48Q135.74 13.55 135.04 13.55L135.04 13.55L135.04 13.55Q134.39 13.55 133.84 13.23L133.84 13.23L133.84 13.23Q133.14 12.82 131.47 10.09L131.47 10.09L131.47 10.09Q131.38 9.94 131.33 9.87L131.33 9.87L131.33 9.87Q130.66 8.78 130.30 8.78L130.30 8.78L130.00 8.78L129.15 8.78L129.15 8.78Q128.98 8.78 128.95 8.92L128.95 8.92L128.95 8.92Q128.91 9.06 128.91 9.77L128.91 9.77L128.91 9.77Q128.91 10.44 128.91 10.88L128.91 10.88L128.91 10.88Q128.91 11.31 128.92 11.43L128.92 11.43L128.92 11.43Q128.93 11.55 128.93 11.63L128.93 11.63L128.93 11.63Q128.93 11.70 128.93 11.75L128.93 11.75L128.93 11.75Q128.93 12.32 129.19 12.63L129.19 12.63L129.19 12.63Q129.46 12.95 129.79 13.00L129.79 13.00L129.79 13.00Q130.12 13.05 130.38 13.11L130.38 13.11L130.38 13.11Q130.65 13.17 130.65 13.31L130.65 13.31L130.65 13.31Q130.65 13.54 130.40 13.54L130.40 13.54L130.40 13.54Q130.38 13.54 129.43 13.49L129.43 13.49L129.43 13.49Q128.48 13.44 128.39 13.44L128.39 13.44L128.39 13.44Q127.99 13.44 127.43 13.47L127.43 13.47L127.43 13.47Q126.87 13.50 126.85 13.50L126.85 13.50L126.85 13.50Q126.56 13.50 126.56 13.27L126.56 13.27L126.56 13.27Q126.56 13.12 126.74 13.05L126.74 13.05L126.74 13.05Q126.92 12.99 127.15 12.96L127.15 12.96L127.15 12.96Q127.37 12.94 127.55 12.66L127.55 12.66L127.55 12.66Q127.74 12.38 127.74 11.86L127.74 11.86L127.74 11.86Q127.74 11.49 127.74 9.90L127.74 9.90L127.74 9.90Q127.75 8.30 127.75 7.45L127.75 7.45L127.75 7.45Q127.75 6.58 127.74 5.86L127.74 5.86L127.74 5.86Q127.74 5.14 127.74 5.08L127.74 5.08L127.74 5.08Q127.74 4.56 127.53 4.29L127.53 4.29L127.53 4.29Q127.32 4.02 127.06 3.98L127.06 3.98L127.06 3.98Q126.80 3.95 126.59 3.89L126.59 3.89L126.59 3.89Q126.38 3.84 126.38 3.70ZM128.91 5.54L128.91 5.94L128.91 5.94Q128.91 7.38 128.93 7.72L128.93 7.72L128.93 7.72Q128.94 8.06 129.02 8.12L129.02 8.12L129.02 8.12Q129.23 8.25 129.63 8.25L129.63 8.25L129.77 8.25L130.17 8.25L130.17 8.25Q131.36 8.25 131.87 7.70L131.87 7.70L131.87 7.70Q132.38 7.15 132.38 6.30L132.38 6.30L132.38 6.30Q132.38 5.43 131.71 4.72L131.71 4.72L131.71 4.72Q131.03 4.00 129.65 4.00L129.65 4.00L129.65 4.00Q129.14 4.00 129.02 4.28L129.02 4.28L129.02 4.28Q128.91 4.55 128.91 5.54L128.91 5.54ZM141.60 3.81L141.60 3.81L141.60 3.81Q141.60 3.65 141.76 3.61L141.76 3.61L141.76 3.61Q141.92 3.57 142.46 3.57L142.46 3.57L142.46 3.57Q142.55 3.57 142.85 3.58L142.85 3.58L142.85 3.58Q143.15 3.60 143.28 3.60L143.28 3.60L143.28 3.60Q143.43 3.60 143.84 3.59L143.84 3.59L143.84 3.59Q144.26 3.58 144.47 3.58L144.47 3.58L144.47 3.58Q145.17 3.58 145.17 3.75L145.17 3.75L145.17 3.75Q145.17 3.91 144.87 4.01L144.87 4.01L144.87 4.01Q144.58 4.12 144.58 4.24L144.58 4.24L144.58 4.24Q144.58 4.38 144.67 4.61L144.67 4.61L144.67 4.61Q144.76 4.83 144.85 4.97L144.85 4.97L144.85 4.97Q144.94 5.11 145.12 5.38L145.12 5.38L145.12 5.38Q145.31 5.64 145.33 5.70L145.33 5.70L145.33 5.70Q145.81 6.45 146.32 7.14L146.32 7.14L146.32 7.14Q146.83 7.83 146.90 7.83L146.90 7.83L146.90 7.83Q146.99 7.83 147.11 7.66L147.11 7.66L147.11 7.66Q147.24 7.50 147.46 7.13L147.46 7.13L147.46 7.13Q147.69 6.75 147.84 6.52L147.84 6.52L147.84 6.52Q147.88 6.45 148.04 6.22L148.04 6.22L148.04 6.22Q148.20 5.98 148.27 5.88L148.27 5.88L148.27 5.88Q148.33 5.78 148.46 5.58L148.46 5.58L148.46 5.58Q148.58 5.38 148.64 5.27L148.64 5.27L148.64 5.27Q148.69 5.17 148.77 5.02L148.77 5.02L148.77 5.02Q148.85 4.87 148.88 4.77L148.88 4.77L148.88 4.77Q148.90 4.68 148.90 4.59L148.90 4.59L148.90 4.59Q148.90 4.14 148.43 4.03L148.43 4.03L148.43 4.03Q148.37 4.02 148.27 4.00L148.27 4.00L148.27 4.00Q148.16 3.99 148.11 3.98L148.11 3.98L148.11 3.98Q148.06 3.96 147.99 3.93L147.99 3.93L147.99 3.93Q147.92 3.91 147.90 3.86L147.90 3.86L147.90 3.86Q147.87 3.81 147.87 3.74L147.87 3.74L147.87 3.74Q147.87 3.57 148.26 3.57L148.26 3.57L148.26 3.57Q148.33 3.57 148.52 3.58L148.52 3.58L148.52 3.58Q148.71 3.58 148.83 3.58L148.83 3.58L148.83 3.58Q149.16 3.58 149.61 3.59L149.61 3.59L149.61 3.59Q150.07 3.60 150.32 3.60L150.32 3.60L150.32 3.60Q151.00 3.60 151.00 3.81L151.00 3.81L151.00 3.81Q151.00 3.86 150.92 3.91L150.92 3.91L150.92 3.91Q150.84 3.95 150.68 4.02L150.68 4.02L150.68 4.02Q150.53 4.09 150.40 4.19L150.40 4.19L150.40 4.19Q149.83 4.63 148.72 6.31L148.72 6.31L148.72 6.31Q147.60 7.99 147.45 8.19L147.45 8.19L147.45 8.19Q147.22 8.47 147.17 8.81L147.17 8.81L147.17 8.81Q147.11 9.14 147.11 9.95L147.11 9.95L147.11 9.95Q147.11 10.14 147.12 10.73L147.12 10.73L147.12 10.73Q147.13 11.33 147.13 11.58L147.13 11.58L147.13 11.91L147.13 11.91Q147.13 12.38 147.29 12.64L147.29 12.64L147.29 12.64Q147.45 12.91 147.59 12.96L147.59 12.96L147.59 12.96Q147.73 13.01 147.87 13.01L147.87 13.01L147.87 13.01Q147.90 13.01 148.01 13.01L148.01 13.01L148.01 13.01Q148.12 13.02 148.15 13.02L148.15 13.02L148.15 13.02Q148.25 13.02 148.30 13.08L148.30 13.08L148.30 13.08Q148.36 13.15 148.36 13.22L148.36 13.22L148.36 13.22Q148.36 13.36 148.29 13.40L148.29 13.40L148.29 13.40Q148.22 13.44 148.02 13.44L148.02 13.44L148.02 13.44Q147.95 13.44 147.41 13.43L147.41 13.43L147.41 13.43Q146.87 13.43 146.62 13.43L146.62 13.43L146.62 13.43Q146.13 13.43 145.73 13.45L145.73 13.45L145.73 13.45Q145.32 13.48 145.08 13.48L145.08 13.48L145.08 13.48Q144.69 13.48 144.69 13.33L144.69 13.33L144.69 13.33Q144.69 13.20 144.77 13.15L144.77 13.15L144.77 13.15Q144.84 13.10 145.03 13.09L145.03 13.09L145.03 13.09Q145.21 13.08 145.29 13.05L145.29 13.05L145.29 13.05Q145.88 12.87 145.88 12.19L145.88 12.19L145.88 12.19Q145.88 12.11 145.89 11.92L145.89 11.92L145.89 11.92Q145.89 11.73 145.90 11.12L145.90 11.12L145.90 11.12Q145.91 10.50 145.91 9.35L145.91 9.35L145.91 9.35Q145.91 9.13 145.87 8.97L145.87 8.97L145.87 8.97Q145.84 8.81 145.79 8.65L145.79 8.65L145.79 8.65Q145.74 8.50 145.55 8.20L145.55 8.20L145.55 8.20Q145.36 7.91 145.18 7.64L145.18 7.64L145.18 7.64Q145.00 7.36 144.56 6.72L144.56 6.72L144.56 6.72Q144.12 6.08 143.71 5.46L143.71 5.46L143.71 5.46Q143.28 4.80 142.93 4.46L142.93 4.46L142.93 4.46Q142.58 4.12 142.39 4.05L142.39 4.05L142.39 4.05Q142.20 3.99 141.95 3.99L141.95 3.99L141.95 3.99Q141.60 3.99 141.60 3.81ZM158.56 3.72L158.56 3.72L158.56 3.72Q158.56 3.50 158.89 3.50L158.89 3.50L158.89 3.50Q158.93 3.50 159.04 3.49L159.04 3.49L159.04 3.49Q159.15 3.49 159.40 3.49L159.40 3.49L159.40 3.49Q159.47 3.49 159.79 3.51L159.79 3.51L159.79 3.51Q160.10 3.53 160.24 3.53L160.24 3.53L160.24 3.53Q160.55 3.53 161.43 3.51L161.43 3.51L161.43 3.51Q162.32 3.49 162.55 3.49L162.55 3.49L162.55 3.49Q163.87 3.49 164.82 4.15L164.82 4.15L164.82 4.15Q165.77 4.82 165.77 6.06L165.77 6.06L165.77 6.06Q165.77 6.75 165.52 7.29L165.52 7.29L165.52 7.29Q165.27 7.83 164.91 8.13L164.91 8.13L164.91 8.13Q164.56 8.44 164.11 8.64L164.11 8.64L164.11 8.64Q163.67 8.85 163.33 8.91L163.33 8.91L163.33 8.91Q162.99 8.97 162.72 8.97L162.72 8.97L162.72 8.97Q162.27 8.97 161.81 8.87L161.81 8.87L161.81 8.87Q161.35 8.76 161.35 8.65L161.35 8.65L161.35 8.65Q161.35 8.44 161.53 8.44L161.53 8.44L161.53 8.44Q161.60 8.44 161.82 8.50L161.82 8.50L161.82 8.50Q162.04 8.55 162.25 8.55L162.25 8.55L162.25 8.55Q162.57 8.55 162.93 8.46L162.93 8.46L162.93 8.46Q163.30 8.37 163.69 8.17L163.69 8.17L163.69 8.17Q164.08 7.97 164.33 7.55L164.33 7.55L164.33 7.55Q164.58 7.14 164.58 6.59L164.58 6.59L164.58 6.59Q164.58 5.66 163.83 4.85L163.83 4.85L163.83 4.85Q163.07 4.05 161.74 4.05L161.74 4.05L161.74 4.05Q161.31 4.05 161.15 4.30L161.15 4.30L161.15 4.30Q161 4.56 161 5.47L161 5.47L161 5.47Q161 8.39 160.99 8.80L160.99 8.80L160.99 8.80Q160.97 9.21 160.97 11.26L160.97 11.26L160.97 11.26Q160.97 12.49 161.55 12.87L161.55 12.87L161.55 12.87Q161.70 12.96 161.93 12.99L161.93 12.99L161.93 12.99Q162.16 13.02 162.32 13.01L162.32 13.01L162.32 13.01Q162.47 13.01 162.59 13.07L162.59 13.07L162.59 13.07Q162.71 13.13 162.71 13.30L162.71 13.30L162.71 13.30Q162.71 13.54 162.39 13.54L162.39 13.54L162.39 13.54Q162.06 13.54 161.25 13.50L161.25 13.50L161.25 13.50Q160.44 13.47 160.38 13.47L160.38 13.47L160.38 13.47Q160.24 13.47 159.83 13.50L159.83 13.50L159.83 13.50Q159.42 13.52 159.08 13.52L159.08 13.52L159.08 13.52Q158.65 13.52 158.65 13.37L158.65 13.37L158.65 13.37Q158.65 13.29 158.67 13.23L158.67 13.23L158.67 13.23Q158.69 13.17 158.71 13.14L158.71 13.14L158.71 13.14Q158.73 13.10 158.80 13.08L158.80 13.08L158.80 13.08Q158.87 13.05 158.90 13.03L158.90 13.03L158.90 13.03Q158.93 13.02 159.03 13.00L159.03 13.00L159.03 13.00Q159.14 12.98 159.18 12.96L159.18 12.96L159.18 12.96Q159.21 12.95 159.26 12.94L159.26 12.94L159.26 12.94Q159.32 12.94 159.34 12.93L159.34 12.93L159.34 12.93Q159.36 12.92 159.41 12.89L159.41 12.89L159.41 12.89Q159.46 12.85 159.49 12.79L159.49 12.79L159.49 12.79Q159.52 12.73 159.56 12.62L159.56 12.62L159.56 12.62Q159.61 12.52 159.67 12.35L159.67 12.35L159.67 12.35Q159.77 12.08 159.82 10.25L159.82 10.25L159.82 10.25Q159.88 8.41 159.88 7.41L159.88 7.41L159.88 7.41Q159.88 6.54 159.87 5.80L159.87 5.80L159.87 5.80Q159.87 5.07 159.87 5.03L159.87 5.03L159.87 5.03Q159.87 4.65 159.63 4.28L159.63 4.28L159.63 4.28Q159.39 3.91 158.84 3.91L158.84 3.91L158.84 3.91Q158.56 3.91 158.56 3.72ZM173.46 5.32L173.46 5.32L173.46 5.32Q173.46 4.76 173.60 3.88L173.60 3.88L173.60 3.88Q173.60 3.85 173.61 3.78L173.61 3.78L173.61 3.78Q173.61 3.71 173.62 3.69L173.62 3.69L173.62 3.69Q173.63 3.67 173.63 3.62L173.63 3.62L173.63 3.62Q173.64 3.57 173.66 3.55L173.66 3.55L173.66 3.55Q173.67 3.53 173.69 3.49L173.69 3.49L173.69 3.49Q173.71 3.46 173.74 3.44L173.74 3.44L173.74 3.44Q173.77 3.43 173.81 3.42L173.81 3.42L173.81 3.42Q173.85 3.40 173.91 3.39L173.91 3.39L173.91 3.39Q173.96 3.39 174.03 3.39L174.03 3.39L174.03 3.39Q174.26 3.39 175.22 3.44L175.22 3.44L175.22 3.44Q176.18 3.50 177.98 3.50L177.98 3.50L177.98 3.50Q181.06 3.50 182.29 3.43L182.29 3.43L182.29 3.43Q182.31 3.43 182.34 3.42L182.34 3.42L182.34 3.42Q182.38 3.42 182.39 3.42L182.39 3.42L182.39 3.42Q182.55 3.42 182.60 3.50L182.60 3.50L182.60 3.50Q182.66 3.58 182.66 3.65L182.66 3.65L182.66 3.65Q182.66 3.75 182.70 4.24L182.70 4.24L182.70 4.24Q182.74 4.73 182.74 4.79L182.74 4.79L182.74 4.79Q182.74 5.14 182.70 5.23L182.70 5.23L182.70 5.23Q182.66 5.32 182.52 5.32L182.52 5.32L182.52 5.32Q182.41 5.32 182.36 5.15L182.36 5.15L182.36 5.15Q182.25 4.75 182.17 4.60L182.17 4.60L182.17 4.60Q182.08 4.45 181.80 4.34L181.80 4.34L181.80 4.34Q181.52 4.23 180.95 4.23L180.95 4.23L179.13 4.23L179.13 4.23Q178.79 4.23 178.72 4.36L178.72 4.36L178.72 4.36Q178.64 4.49 178.64 5.12L178.64 5.12L178.64 5.81L178.64 5.81Q178.64 7.69 178.62 9.11L178.62 9.11L178.62 9.11Q178.60 10.54 178.60 10.93L178.60 10.93L178.60 10.93Q178.60 11.13 178.59 11.43L178.59 11.43L178.59 11.43Q178.58 11.73 178.58 11.84L178.58 11.84L178.58 11.84Q178.58 12.45 178.78 12.64L178.78 12.64L178.78 12.64Q178.96 12.81 179.19 12.90L179.19 12.90L179.19 12.90Q179.41 12.99 179.57 13.01L179.57 13.01L179.57 13.01Q179.73 13.02 179.84 13.08L179.84 13.08L179.84 13.08Q179.96 13.13 179.96 13.26L179.96 13.26L179.96 13.26Q179.96 13.41 179.89 13.45L179.89 13.45L179.89 13.45Q179.82 13.50 179.62 13.50L179.62 13.50L179.62 13.50Q179.45 13.50 178.88 13.44L178.88 13.44L178.88 13.44Q178.30 13.38 178.07 13.38L178.07 13.38L178.07 13.38Q177.90 13.38 177.39 13.43L177.39 13.43L177.39 13.43Q176.88 13.48 176.64 13.48L176.64 13.48L176.64 13.48Q176.12 13.48 176.12 13.26L176.12 13.26L176.12 13.26Q176.12 13.12 176.20 13.07L176.20 13.07L176.20 13.07Q176.29 13.02 176.53 12.98L176.53 12.98L176.53 12.98Q176.78 12.95 176.85 12.94L176.85 12.94L176.85 12.94Q177.32 12.82 177.38 12.38L177.38 12.38L177.38 12.38Q177.52 11.14 177.52 7.08L177.52 7.08L177.51 4.58L177.51 4.58Q177.51 4.31 177.35 4.25L177.35 4.25L177.35 4.25Q177.20 4.19 176.44 4.19L176.44 4.19L176.44 4.19Q175.46 4.19 174.96 4.24L174.96 4.24L174.96 4.24Q174.47 4.30 174.38 4.35L174.38 4.35L174.38 4.35Q174.30 4.40 174.19 4.54L174.19 4.54L174.19 4.54Q174.06 4.70 173.98 4.91L173.98 4.91L173.98 4.91Q173.91 5.11 173.89 5.24L173.89 5.24L173.89 5.24Q173.87 5.38 173.80 5.47L173.80 5.47L173.80 5.47Q173.74 5.56 173.61 5.56L173.61 5.56L173.61 5.56Q173.46 5.56 173.46 5.32ZM190.64 8.69L190.64 8.69L190.64 8.69Q190.64 6.34 192.05 4.84L192.05 4.84L192.05 4.84Q193.47 3.33 196.06 3.33L196.06 3.33L196.06 3.33Q197.26 3.33 198.23 3.68L198.23 3.68L198.23 3.68Q199.19 4.03 199.75 4.54L199.75 4.54L199.75 4.54Q200.31 5.05 200.69 5.71L200.69 5.71L200.69 5.71Q201.07 6.37 201.21 6.92L201.21 6.92L201.21 6.92Q201.35 7.48 201.35 7.95L201.35 7.95L201.35 7.95Q201.35 9.86 200.61 11.16L200.61 11.16L200.61 11.16Q199.86 12.47 198.65 13.07L198.65 13.07L198.65 13.07Q197.44 13.66 195.86 13.66L195.86 13.66L195.86 13.66Q194.19 13.66 192.98 12.94L192.98 12.94L192.98 12.94Q191.77 12.21 191.20 11.10L191.20 11.10L191.20 11.10Q190.64 10.00 190.64 8.69ZM191.87 7.98L191.87 7.98L191.87 7.98Q191.87 8.54 192.02 9.19L192.02 9.19L192.02 9.19Q192.18 9.84 192.53 10.54L192.53 10.54L192.53 10.54Q192.88 11.23 193.38 11.78L193.38 11.78L193.38 11.78Q193.87 12.33 194.63 12.69L194.63 12.69L194.63 12.69Q195.40 13.05 196.31 13.05L196.31 13.05L196.31 13.05Q196.78 13.05 197.31 12.90L197.31 12.90L197.31 12.90Q197.83 12.75 198.35 12.45L198.35 12.45L198.35 12.45Q198.87 12.14 199.28 11.70L199.28 11.70L199.28 11.70Q199.68 11.26 199.94 10.62L199.94 10.62L199.94 10.62Q200.20 9.98 200.20 9.24L200.20 9.24L200.20 9.24Q200.20 6.71 198.87 5.30L198.87 5.30L198.87 5.30Q197.54 3.89 195.58 3.89L195.58 3.89L195.58 3.89Q194.04 3.89 192.95 4.93L192.95 4.93L192.95 4.93Q191.87 5.96 191.87 7.98ZM219.23 3.72L219.23 3.72L219.23 3.72Q219.23 3.51 219.35 3.51L219.35 3.51L219.35 3.51Q219.39 3.51 219.53 3.52L219.53 3.52L219.53 3.52Q219.67 3.53 219.91 3.53L219.91 3.53L219.91 3.53Q220.19 3.53 221.03 3.52L221.03 3.52L221.03 3.52Q221.86 3.51 221.96 3.51L221.96 3.51L221.96 3.51Q222.28 3.51 222.77 3.49L222.77 3.49L222.77 3.49Q223.26 3.47 223.50 3.47L223.50 3.47L223.50 3.47Q224.77 3.47 225.62 4.08L225.62 4.08L225.62 4.08Q226.48 4.69 226.48 5.81L226.48 5.81L226.48 5.81Q226.48 6.22 226.33 6.57L226.33 6.57L226.33 6.57Q226.18 6.93 225.98 7.15L225.98 7.15L225.98 7.15Q225.78 7.38 225.57 7.54L225.57 7.54L225.57 7.54Q225.37 7.70 225.22 7.79L225.22 7.79L225.22 7.79Q225.08 7.88 225.08 7.90L225.08 7.90L225.08 7.90Q225.08 7.94 225.32 8.00L225.32 8.00L225.32 8.00Q225.55 8.06 225.89 8.21L225.89 8.21L225.89 8.21Q226.23 8.36 226.56 8.61L226.56 8.61L226.56 8.61Q226.88 8.86 227.12 9.36L227.12 9.36L227.12 9.36Q227.36 9.86 227.36 10.53L227.36 10.53L227.36 10.53Q227.36 11.13 227.01 11.82L227.01 11.82L227.01 11.82Q226.66 12.50 226.18 12.82L226.18 12.82L226.18 12.82Q225.57 13.26 225.04 13.40L225.04 13.40L225.04 13.40Q224.50 13.55 223.75 13.55L223.75 13.55L223.75 13.55Q223.19 13.55 222.26 13.47L222.26 13.47L222.26 13.47Q221.34 13.40 221.24 13.40L221.24 13.40L221.24 13.40Q221.09 13.40 220.69 13.43L220.69 13.43L220.69 13.43Q220.29 13.45 220.04 13.45L220.04 13.45L219.84 13.45L219.84 13.45Q219.55 13.45 219.55 13.24L219.55 13.24L219.55 13.24Q219.55 13.05 219.70 13.05L219.70 13.05L219.70 13.05Q219.79 13.05 219.88 13.04L219.88 13.04L219.88 13.04Q219.98 13.03 220.02 13.03L220.02 13.03L220.02 13.03Q220.15 13.03 220.27 12.94L220.27 12.94L220.27 12.94Q220.39 12.85 220.51 12.54L220.51 12.54L220.51 12.54Q220.64 12.22 220.65 11.73L220.65 11.73L220.65 11.73Q220.70 10.82 220.70 7.36L220.70 7.36L220.70 4.98L220.70 4.98Q220.70 4.89 220.66 4.75L220.66 4.75L220.66 4.75Q220.63 4.62 220.52 4.40L220.52 4.40L220.52 4.40Q220.42 4.19 220.14 4.04L220.14 4.04L220.14 4.04Q219.87 3.89 219.46 3.89L219.46 3.89L219.46 3.89Q219.23 3.89 219.23 3.72ZM221.76 12.15L221.76 12.15L221.76 12.15Q221.76 12.99 223.13 12.99L223.13 12.99L223.45 12.99L223.45 12.99Q224.21 12.99 224.66 12.92L224.66 12.92L224.66 12.92Q225.32 12.81 225.74 12.24L225.74 12.24L225.74 12.24Q226.17 11.66 226.17 10.86L226.17 10.86L226.17 10.86Q226.17 10.18 225.92 9.68L225.92 9.68L225.92 9.68Q225.67 9.18 225.34 8.93L225.34 8.93L225.34 8.93Q225.02 8.68 224.58 8.54L224.58 8.54L224.58 8.54Q224.14 8.40 223.90 8.37L223.90 8.37L223.90 8.37Q223.65 8.34 223.43 8.34L223.43 8.34L223.43 8.34Q222.98 8.34 222.69 8.34L222.69 8.34L222.69 8.34Q222.40 8.33 222.33 8.33L222.33 8.33L222.33 8.33Q222.25 8.33 222.20 8.32L222.20 8.32L222.20 8.32Q222.15 8.32 222.12 8.32L222.12 8.32L222.12 8.32Q222.00 8.32 221.94 8.35L221.94 8.35L221.94 8.35Q221.89 8.39 221.84 8.62L221.84 8.62L221.84 8.62Q221.79 8.85 221.78 9.28L221.78 9.28L221.78 9.28Q221.77 9.72 221.77 10.58L221.77 10.58L221.77 10.70L221.77 10.70Q221.77 11.21 221.77 11.54L221.77 11.54L221.77 11.54Q221.77 11.86 221.77 11.99L221.77 11.99L221.77 11.99Q221.76 12.12 221.76 12.15ZM221.84 5.40L221.84 5.81L221.84 5.81Q221.84 6.51 221.85 6.90L221.85 6.90L221.85 6.90Q221.86 7.29 221.89 7.50L221.89 7.50L221.89 7.50Q221.91 7.71 221.94 7.77L221.94 7.77L221.94 7.77Q221.97 7.83 222.03 7.83L222.03 7.83L222.03 7.83Q222.42 7.87 222.74 7.87L222.74 7.87L223.64 7.87L223.64 7.87Q224.52 7.87 224.96 7.41L224.96 7.41L224.96 7.41Q225.40 6.94 225.40 6.22L225.40 6.22L225.40 6.22Q225.40 5.43 224.66 4.70L224.66 4.70L224.66 4.70Q223.93 3.96 222.57 3.96L222.57 3.96L222.57 3.96Q222.14 3.96 221.99 4.22L221.99 4.22L221.99 4.22Q221.84 4.48 221.84 5.40L221.84 5.40ZM234.64 13.33L234.64 13.33L234.64 13.33Q234.64 13.13 234.85 13.06L234.85 13.06L234.85 13.06Q235.30 12.89 235.63 12.31L235.63 12.31L235.63 12.31Q235.97 11.73 237.30 8.83L237.30 8.83L237.30 8.83Q238.67 5.87 239.72 3.63L239.72 3.63L239.72 3.63Q239.82 3.42 239.90 3.36L239.90 3.36L239.90 3.36Q239.97 3.30 240.14 3.30L240.14 3.30L240.14 3.30Q240.27 3.30 240.31 3.36L240.31 3.36L240.31 3.36Q240.35 3.42 240.49 3.82L240.49 3.82L240.49 3.82Q240.58 4.06 240.64 4.23L240.64 4.23L240.64 4.23Q240.70 4.40 240.84 4.77L240.84 4.77L240.84 4.77Q240.98 5.15 241.15 5.56L241.15 5.56L241.15 5.56Q241.60 6.66 242.70 9.22L242.70 9.22L242.70 9.22Q243.80 11.77 243.89 11.98L243.89 11.98L243.89 11.98Q244.13 12.46 244.43 12.71L244.43 12.71L244.43 12.71Q244.72 12.95 244.94 12.97L244.94 12.97L244.94 12.97Q245.15 12.99 245.30 13.04L245.30 13.04L245.30 13.04Q245.45 13.09 245.45 13.26L245.45 13.26L245.45 13.26Q245.45 13.47 245.07 13.47L245.07 13.47L245.07 13.47Q244.92 13.47 244.47 13.43L244.47 13.43L244.47 13.43Q244.02 13.38 243.81 13.38L243.81 13.38L243.81 13.38Q243.54 13.38 243.12 13.41L243.12 13.41L243.12 13.41Q242.70 13.44 242.51 13.44L242.51 13.44L242.51 13.44Q242.07 13.44 241.95 13.40L241.95 13.40L241.95 13.40Q241.84 13.37 241.84 13.24L241.84 13.24L241.84 13.24Q241.84 13.15 241.95 13.08L241.95 13.08L241.95 13.08Q242.06 13.02 242.19 13.00L242.19 13.00L242.19 13.00Q242.31 12.98 242.42 12.87L242.42 12.87L242.42 12.87Q242.54 12.77 242.54 12.59L242.54 12.59L242.54 12.59Q242.54 12.28 242.19 11.33L242.19 11.33L242.19 11.33Q241.84 10.37 241.60 9.93L241.60 9.93L241.60 9.93Q241.47 9.69 241.02 9.69L241.02 9.69L241.02 9.69Q240.95 9.69 240.41 9.70L240.41 9.70L240.41 9.70Q239.86 9.72 239.33 9.72L239.33 9.72L238.59 9.72L238.59 9.72Q237.96 9.72 237.80 9.79L237.80 9.79L237.80 9.79Q237.64 9.86 237.51 10.12L237.51 10.12L237.51 10.12Q237.43 10.30 237.23 10.70L237.23 10.70L237.23 10.70Q237.03 11.10 236.96 11.26L236.96 11.26L236.96 11.26Q236.89 11.41 236.79 11.65L236.79 11.65L236.79 11.65Q236.68 11.90 236.65 12.05L236.65 12.05L236.65 12.05Q236.61 12.19 236.61 12.31L236.61 12.31L236.61 12.31Q236.61 12.63 236.77 12.80L236.77 12.80L236.77 12.80Q236.94 12.96 237.13 12.98L237.13 12.98L237.13 12.98Q237.33 13.01 237.49 13.06L237.49 13.06L237.49 13.06Q237.65 13.12 237.65 13.26L237.65 13.26L237.65 13.26Q237.65 13.36 237.61 13.40L237.61 13.40L237.61 13.40Q237.57 13.45 237.41 13.45L237.41 13.45L237.41 13.45Q237.33 13.45 236.93 13.45L236.93 13.45L236.93 13.45Q236.53 13.44 236.25 13.44L236.25 13.44L236.25 13.44Q235.94 13.44 235.56 13.47L235.56 13.47L235.56 13.47Q235.17 13.50 235.05 13.50L235.05 13.50L235.05 13.50Q234.64 13.50 234.64 13.33ZM238.15 8.71L238.15 8.71L238.15 8.71Q238.15 8.89 238.28 8.93L238.28 8.93L238.28 8.93Q238.41 8.97 238.87 8.97L238.87 8.97L239.30 8.97L240.63 8.96L240.63 8.96Q241.18 8.96 241.18 8.74L241.18 8.74L241.18 8.74Q241.18 8.55 240.49 7.01L240.49 7.01L240.49 7.01Q239.81 5.46 239.62 5.46L239.62 5.46L239.62 5.46Q239.50 5.46 238.83 7.01L238.83 7.01L238.83 7.01Q238.15 8.55 238.15 8.71ZM250.96 3.81L250.96 3.81L250.96 3.81Q250.96 3.65 251.12 3.61L251.12 3.61L251.12 3.61Q251.29 3.57 251.83 3.57L251.83 3.57L251.83 3.57Q251.92 3.57 252.22 3.58L252.22 3.58L252.22 3.58Q252.52 3.60 252.64 3.60L252.64 3.60L252.64 3.60Q252.80 3.60 253.21 3.59L253.21 3.59L253.21 3.59Q253.62 3.58 253.83 3.58L253.83 3.58L253.83 3.58Q254.53 3.58 254.53 3.75L254.53 3.75L254.53 3.75Q254.53 3.91 254.24 4.01L254.24 4.01L254.24 4.01Q253.95 4.12 253.95 4.24L253.95 4.24L253.95 4.24Q253.95 4.38 254.04 4.61L254.04 4.61L254.04 4.61Q254.13 4.83 254.22 4.97L254.22 4.97L254.22 4.97Q254.31 5.11 254.49 5.38L254.49 5.38L254.49 5.38Q254.67 5.64 254.70 5.70L254.70 5.70L254.70 5.70Q255.18 6.45 255.69 7.14L255.69 7.14L255.69 7.14Q256.20 7.83 256.27 7.83L256.27 7.83L256.27 7.83Q256.35 7.83 256.48 7.66L256.48 7.66L256.48 7.66Q256.61 7.50 256.83 7.13L256.83 7.13L256.83 7.13Q257.05 6.75 257.21 6.52L257.21 6.52L257.21 6.52Q257.25 6.45 257.41 6.22L257.41 6.22L257.41 6.22Q257.57 5.98 257.63 5.88L257.63 5.88L257.63 5.88Q257.70 5.78 257.82 5.58L257.82 5.58L257.82 5.58Q257.95 5.38 258.01 5.27L258.01 5.27L258.01 5.27Q258.06 5.17 258.14 5.02L258.14 5.02L258.14 5.02Q258.22 4.87 258.24 4.77L258.24 4.77L258.24 4.77Q258.27 4.68 258.27 4.59L258.27 4.59L258.27 4.59Q258.27 4.14 257.80 4.03L257.80 4.03L257.80 4.03Q257.74 4.02 257.63 4.00L257.63 4.00L257.63 4.00Q257.53 3.99 257.48 3.98L257.48 3.98L257.48 3.98Q257.43 3.96 257.36 3.93L257.36 3.93L257.36 3.93Q257.29 3.91 257.26 3.86L257.26 3.86L257.26 3.86Q257.24 3.81 257.24 3.74L257.24 3.74L257.24 3.74Q257.24 3.57 257.63 3.57L257.63 3.57L257.63 3.57Q257.70 3.57 257.89 3.58L257.89 3.58L257.89 3.58Q258.08 3.58 258.20 3.58L258.20 3.58L258.20 3.58Q258.52 3.58 258.98 3.59L258.98 3.59L258.98 3.59Q259.43 3.60 259.69 3.60L259.69 3.60L259.69 3.60Q260.37 3.60 260.37 3.81L260.37 3.81L260.37 3.81Q260.37 3.86 260.29 3.91L260.29 3.91L260.29 3.91Q260.20 3.95 260.05 4.02L260.05 4.02L260.05 4.02Q259.90 4.09 259.77 4.19L259.77 4.19L259.77 4.19Q259.20 4.63 258.08 6.31L258.08 6.31L258.08 6.31Q256.97 7.99 256.82 8.19L256.82 8.19L256.82 8.19Q256.59 8.47 256.54 8.81L256.54 8.81L256.54 8.81Q256.48 9.14 256.48 9.95L256.48 9.95L256.48 9.95Q256.48 10.14 256.49 10.73L256.49 10.73L256.49 10.73Q256.49 11.33 256.49 11.58L256.49 11.58L256.49 11.91L256.49 11.91Q256.49 12.38 256.65 12.64L256.65 12.64L256.65 12.64Q256.82 12.91 256.96 12.96L256.96 12.96L256.96 12.96Q257.10 13.01 257.24 13.01L257.24 13.01L257.24 13.01Q257.26 13.01 257.38 13.01L257.38 13.01L257.38 13.01Q257.49 13.02 257.52 13.02L257.52 13.02L257.52 13.02Q257.61 13.02 257.67 13.08L257.67 13.08L257.67 13.08Q257.73 13.15 257.73 13.22L257.73 13.22L257.73 13.22Q257.73 13.36 257.66 13.40L257.66 13.40L257.66 13.40Q257.59 13.44 257.39 13.44L257.39 13.44L257.39 13.44Q257.32 13.44 256.78 13.43L256.78 13.43L256.78 13.43Q256.24 13.43 255.99 13.43L255.99 13.43L255.99 13.43Q255.50 13.43 255.09 13.45L255.09 13.45L255.09 13.45Q254.69 13.48 254.45 13.48L254.45 13.48L254.45 13.48Q254.06 13.48 254.06 13.33L254.06 13.33L254.06 13.33Q254.06 13.20 254.13 13.15L254.13 13.15L254.13 13.15Q254.21 13.10 254.39 13.09L254.39 13.09L254.39 13.09Q254.58 13.08 254.66 13.05L254.66 13.05L254.66 13.05Q255.25 12.87 255.25 12.19L255.25 12.19L255.25 12.19Q255.25 12.11 255.25 11.92L255.25 11.92L255.25 11.92Q255.26 11.73 255.27 11.12L255.27 11.12L255.27 11.12Q255.28 10.50 255.28 9.35L255.28 9.35L255.28 9.35Q255.28 9.13 255.24 8.97L255.24 8.97L255.24 8.97Q255.21 8.81 255.16 8.65L255.16 8.65L255.16 8.65Q255.11 8.50 254.92 8.20L254.92 8.20L254.92 8.20Q254.73 7.91 254.55 7.64L254.55 7.64L254.55 7.64Q254.37 7.36 253.92 6.72L253.92 6.72L253.92 6.72Q253.48 6.08 253.08 5.46L253.08 5.46L253.08 5.46Q252.64 4.80 252.29 4.46L252.29 4.46L252.29 4.46Q251.94 4.12 251.75 4.05L251.75 4.05L251.75 4.05Q251.57 3.99 251.31 3.99L251.31 3.99L251.31 3.99Q250.96 3.99 250.96 3.81Z"></path></g></svg>